<svg width="923" height="710" viewBox="0 0 923 710" fill="none" xmlns="http://www.w3.org/2000/svg">
<path d="M430.037 135.951C430.638 131.4 431.77 118.34 437.539 118.527C439.841 120.616 439.889 122.037 440.53 125.078C442.358 136.497 444.001 147.79 446.03 159.191C447.66 167.438 449.187 176.129 452.824 183.765C458.802 199.544 466.135 222.938 473.055 237.277C488.208 268.677 530.85 331.331 532.313 365.965C533.943 376.146 532.713 394.264 530.522 404.453C521.928 431.828 508.31 452.714 483.207 467.184C478.481 469.837 476.799 470.922 471.62 472.617C445.883 481.317 417.698 479.436 393.374 467.397C370.38 456.037 352.914 436.068 344.846 411.915C339.426 395.181 339.838 366.814 344.575 349.904C353.347 318.597 371.863 290.19 386.818 261.349C393.371 249.965 396.877 242.323 402.509 230.536C414.765 203.154 418.156 189.074 425.094 159.698C427.272 152.199 428.623 143.69 430.037 135.951ZM471.025 371.97C469.833 374.716 468.693 377.483 467.604 380.27C465.5 391.003 467.823 389.628 469.976 399.47C477.212 406.016 476.209 408.947 480.951 416.971C485.157 412.22 490.053 406.77 492.056 400.708C492.448 399.468 495.263 394.22 496.023 392.495C499.654 384.27 500.19 379.371 501.108 370.602C500.071 355.006 498.608 332.78 494.113 317.751C489.782 306.244 479.699 289.207 474.341 277.445C469.366 268.523 465.964 256.417 461.062 247.749C450.698 229.423 447.868 220.835 445.723 200.385C443.494 198.983 444.123 198.91 441.923 198.978C440.895 202.635 442.38 203.685 441.519 207.296C444.886 226.972 448.826 242.27 454.955 261.382C466.913 298.675 479.52 323.456 473.77 363.345C475.328 368.588 477.553 378.107 476.405 383.451L475.734 383.475L475.322 382.929L476.4 383.525L475.07 382.478L476.922 382.229L474.856 382.029C473.666 378.73 472.46 375.147 471.025 371.97ZM441.866 176.276C441.555 172.238 440.341 166.045 439.637 161.853L438.147 161.196C435.895 163.901 435.419 171.586 436.104 174.979L438.965 173.58L439.432 174.951L438.913 174.581C439.902 176.003 439.786 175.591 441.866 176.276Z" fill="#B48136"/>
<path d="M441.519 207.296C442.38 203.685 440.895 202.634 441.923 198.978C444.123 198.909 443.494 198.983 445.723 200.385C447.868 220.835 450.698 229.423 461.062 247.749C465.964 256.417 469.366 268.523 474.341 277.444C479.699 289.207 489.782 306.244 494.113 317.751C498.608 332.78 500.071 355.006 501.108 370.602C500.19 379.371 499.654 384.27 496.023 392.495C495.262 394.22 492.448 399.468 492.056 400.708C490.052 406.77 485.157 412.22 480.951 416.971C476.209 408.947 477.212 406.016 469.976 399.47C467.823 389.628 465.5 391.003 467.604 380.27C468.693 377.483 469.833 374.715 471.024 371.97C472.46 375.147 473.666 378.73 474.856 382.029L476.922 382.229L475.07 382.478L476.4 383.525L475.322 382.929L475.734 383.475L476.405 383.451C477.553 378.107 475.328 368.588 473.77 363.344C479.52 323.455 466.913 298.675 454.954 261.382C448.826 242.27 444.886 226.972 441.519 207.296Z" fill="#F0DCAC" fill-opacity="0.984314"/>
<path d="M494.113 317.751C494.616 318.505 496.023 320.489 496.306 321.227L498.498 319.357C501.673 320.115 501.97 323.937 502.496 326.934L501.605 328.334C502.352 330.457 503.328 332.246 502.687 334.262L505.361 347.26C504.624 351.669 503.737 354.732 502.682 358.994C501.82 362.474 501.997 367.375 501.108 370.602C500.071 355.006 498.608 332.78 494.113 317.751Z" fill="#EACE94"/>
<path d="M496.306 321.227L498.498 319.357C501.672 320.115 501.97 323.937 502.495 326.934L501.605 328.334C502.351 330.457 503.327 332.246 502.687 334.262C501.912 333.629 497.261 323.178 496.306 321.227Z" fill="#DCB66E"/>
<path d="M473.77 363.344C475.328 368.588 477.553 378.107 476.405 383.451L475.734 383.475L475.322 382.929L476.4 383.525L475.07 382.478L476.922 382.229L474.856 382.029C473.666 378.73 472.46 375.147 471.024 371.97C472.023 369.245 472.908 366.145 473.77 363.344Z" fill="#EACE94"/>
<path d="M391.49 261.26C391.447 268.025 395.916 270.74 400.929 276.461C396.713 286.151 392.268 295.742 387.599 305.227C385.745 309.069 379.956 320.614 379.024 324.354C371.397 340.101 369.18 357.909 368.76 375.183C368.63 380.529 367.087 389.015 371.59 392.626C371.746 387.762 369.273 379.646 371.407 377.168L373.085 377.832L373.3 378.522C373.544 379.293 373.669 379.59 374.047 380.327C376.104 377.284 373.476 374.307 375.711 370.78L377.029 370.714C380.242 373.896 379.499 375.605 382.373 378.745C388.773 385.734 404.717 394.664 404.905 405.049C404.996 410.165 401.224 413.302 403.526 417.853C404.728 418.656 405.532 419.276 406.902 419.799C409.727 421.166 410.48 421.69 412.981 423.596C418.169 420.864 452.745 429.658 460.403 429.885L462.729 429.03L464.745 428.388C469.991 434.681 465.551 434.12 475.012 441.189C478.038 439.996 481.471 436.844 484.233 435.248C499.075 426.67 500.977 413.472 509.034 400.93C512.227 399.56 511.788 395.158 514.203 391.469C515.295 395.803 512.801 398.432 514.187 401.903C512.294 411.965 507.517 416.052 506.371 420.503C510.113 419.361 509.175 415.912 511.532 416.938C515.252 418.557 514.652 421.319 518.414 424.758C522.373 419.198 524.433 412.946 525.232 406.244L526.141 404.929L530.522 404.453C521.928 431.828 508.31 452.714 483.207 467.184C478.481 469.837 476.799 470.922 471.62 472.616C445.883 481.317 417.698 479.436 393.374 467.397C370.38 456.037 352.914 436.068 344.846 411.915C339.426 395.181 339.838 366.814 344.575 349.904C353.347 318.597 371.863 290.19 386.818 261.349C388.456 261.394 388.169 261.547 389.79 262.51L391.49 261.26Z" fill="#552908"/>
<path d="M355.886 353.954C356.615 352.467 356.832 351.801 357.959 350.606C357.544 354.203 357.402 355.195 357.939 358.738C357.294 373.882 357.627 379.569 362.169 393.978C375.943 437.678 432.371 466.75 475.012 441.189C478.038 439.996 481.471 436.844 484.233 435.248C499.075 426.67 500.977 413.471 509.034 400.93C512.227 399.56 511.788 395.158 514.203 391.469C515.295 395.803 512.801 398.431 514.187 401.903C512.295 411.964 507.517 416.051 506.371 420.503C498.118 430.318 494.857 438.67 483.008 445.988C415.628 487.602 340.969 427.367 355.886 353.954Z" fill="#BB8D57"/>
<path d="M525.232 406.244L526.141 404.929L530.522 404.453C521.928 431.828 508.31 452.714 483.207 467.184C485.227 463.689 485.373 464.663 488.072 462.455C502.276 450.842 508.898 439.876 518.414 424.758C522.373 419.198 524.433 412.946 525.232 406.244Z" fill="#552908"/>
<path d="M355.886 353.954C354.722 345.551 365.086 315.587 370.295 308.803C371.59 309.268 371.227 309.239 372.123 310.779C372.296 322.679 361.157 343.657 357.939 358.738C357.402 355.195 357.544 354.203 357.959 350.606C356.832 351.801 356.615 352.467 355.886 353.954Z" fill="#734A1A"/>
<path d="M412.981 423.596C418.169 420.864 452.745 429.658 460.403 429.885C448.208 434.847 422.643 432.514 412.981 423.596Z" fill="#8E632D"/>
<path d="M452.825 183.765C458.803 199.544 466.135 222.938 473.055 237.277C488.208 268.677 530.85 331.331 532.313 365.965C533.943 376.145 532.713 394.264 530.522 404.453L526.141 404.929L525.232 406.244C524.433 412.946 522.373 419.198 518.414 424.757C514.652 421.319 515.253 418.557 511.532 416.938C509.175 415.912 510.113 419.361 506.371 420.503C507.517 416.052 512.295 411.965 514.188 401.903C512.801 398.431 515.295 395.803 514.203 391.469C511.788 395.158 512.227 399.56 509.034 400.93C500.977 413.472 499.075 426.67 484.233 435.248C481.472 436.844 478.038 439.996 475.012 441.189C465.551 434.12 469.991 434.681 464.745 428.388C471.127 424.874 475.749 422.02 480.951 416.971C485.158 412.22 490.053 406.77 492.056 400.708C492.449 399.468 495.263 394.22 496.023 392.495C499.655 384.27 500.19 379.371 501.108 370.602C501.997 367.375 501.82 362.474 502.682 358.994C503.737 354.732 504.624 351.669 505.361 347.26L502.687 334.262C503.328 332.246 502.352 330.457 501.605 328.334L502.496 326.934C501.97 323.936 501.673 320.115 498.498 319.357L496.306 321.227C496.023 320.489 494.616 318.504 494.113 317.751C489.782 306.244 479.699 289.207 474.341 277.444C469.367 268.523 465.964 256.417 461.062 247.749C450.699 229.423 447.868 220.835 445.723 200.385L447.707 200.531C447.28 199.116 446.872 196.889 446.542 195.38C446.737 192.736 445.268 187.934 446.867 186.15C449.235 188.141 448.595 188.362 449.811 190.827C450.276 187.098 450.294 186.504 452.825 183.765Z" fill="#DCB66E"/>
<path d="M452.824 183.765C458.803 199.544 466.135 222.938 473.055 237.277C488.208 268.677 530.85 331.331 532.313 365.965C533.943 376.145 532.713 394.264 530.522 404.453L526.141 404.929L525.232 406.244C524.433 412.946 522.373 419.198 518.414 424.757C514.652 421.319 515.253 418.557 511.532 416.938C509.175 415.912 510.113 419.361 506.371 420.503C507.517 416.052 512.295 411.965 514.187 401.903C519.663 386.601 520.024 364.837 515.973 349.143C515.578 324.608 472.654 254.197 459.755 228.888C455.165 219.685 451.142 210.216 447.707 200.531C447.28 199.116 446.872 196.889 446.542 195.38C446.737 192.736 445.268 187.934 446.867 186.15C449.235 188.141 448.595 188.362 449.811 190.827C450.276 187.098 450.294 186.504 452.824 183.765Z" fill="#805521"/>
<path d="M532.313 365.965C533.943 376.146 532.713 394.265 530.522 404.453L526.141 404.929L525.232 406.244C524.578 400.758 529.29 384.343 530.381 376.718C530.482 379.292 530.604 381.865 530.749 384.437L532.313 365.965Z" fill="#805521"/>
<path d="M502.495 326.934C505.741 334.237 509.387 345.138 512.263 351.195C514.73 367.705 514.964 385.123 509.034 400.93C500.977 413.472 499.075 426.67 484.233 435.248C481.471 436.844 478.038 439.996 475.011 441.189C465.551 434.12 469.99 434.681 464.745 428.388C471.127 424.874 475.748 422.02 480.951 416.971C485.157 412.22 490.052 406.77 492.056 400.708C492.448 399.468 495.262 394.22 496.023 392.495C499.654 384.27 500.19 379.371 501.108 370.602C501.997 367.375 501.82 362.474 502.682 358.994C503.737 354.732 504.624 351.669 505.361 347.26L502.687 334.262C503.327 332.246 502.351 330.457 501.605 328.334L502.495 326.934Z" fill="#8E632D"/>
<path d="M505.361 347.26C508.568 358.243 509.878 399.936 501.208 406.496C496.517 404.939 500.437 400.296 492.056 400.708C492.448 399.468 495.262 394.22 496.023 392.495C499.654 384.27 500.19 379.371 501.108 370.602C501.997 367.375 501.82 362.474 502.682 358.994C503.737 354.732 504.624 351.669 505.361 347.26Z" fill="#DCB66E"/>
<path d="M512.263 351.194L512.99 350.833C517.29 359.113 514.126 377.936 515.091 386.427L516.129 386.959C518.357 378.478 516.633 358.666 514.781 350.143L514.642 349.52L515.973 349.143C520.024 364.837 519.663 386.601 514.187 401.903C512.801 398.431 515.295 395.803 514.203 391.469C511.788 395.158 512.227 399.56 509.034 400.93C514.964 385.123 514.731 367.705 512.263 351.194Z" fill="#EACE94"/>
<path d="M430.037 135.951C430.638 131.4 431.77 118.34 437.539 118.527C439.841 120.616 439.889 122.037 440.53 125.078C442.358 136.497 444.001 147.79 446.03 159.191C447.66 167.438 449.187 176.129 452.824 183.765C450.294 186.504 450.276 187.098 449.811 190.827C448.595 188.362 449.235 188.141 446.867 186.15C445.268 187.934 446.737 192.737 446.542 195.381C446.872 196.889 447.28 199.116 447.707 200.532L445.723 200.385C443.494 198.983 444.123 198.91 441.923 198.978C440.895 202.635 442.38 203.685 441.519 207.296C441.133 206.087 440.552 204.938 440.017 203.778L439.229 204.652C438.092 199.126 435.435 183.377 435.279 178.121C433.859 178.479 432.963 178.438 432.308 180.078C430.955 183.462 427.371 198.769 428.083 201.447L429.123 198.175L429.844 198.848C428.866 208.78 406.888 267.558 400.929 276.461C395.916 270.74 391.447 268.025 391.49 261.26L389.79 262.51C388.169 261.547 388.456 261.394 386.818 261.349C393.371 249.965 396.878 242.323 402.509 230.536C414.765 203.154 418.156 189.074 425.094 159.698C427.272 152.199 428.623 143.69 430.037 135.951ZM441.866 176.276C441.555 172.238 440.341 166.045 439.637 161.853L438.147 161.196C435.895 163.901 435.419 171.586 436.104 174.979L438.965 173.58L439.432 174.951L438.913 174.581C439.902 176.003 439.786 175.591 441.866 176.276Z" fill="#734A1A"/>
<path d="M436.104 174.979C435.419 171.586 435.895 163.901 438.147 161.196L439.637 161.853C440.341 166.045 441.555 172.238 441.866 176.276C439.786 175.591 439.902 176.003 438.913 174.581L439.432 174.951L438.965 173.58L436.104 174.979Z" fill="#A07538" fill-opacity="0.984314"/>
<path d="M430.037 135.951C430.638 131.4 431.77 118.34 437.539 118.527C439.841 120.616 439.889 122.037 440.53 125.078C442.358 136.497 444.001 147.79 446.03 159.191L444.551 159.157C444.207 157.244 444.086 155.373 442.986 153.833C440.562 154.388 440.688 154.86 438.734 156.743C436.902 153.682 437.473 153.489 434.766 152.341C429.99 154.85 429.084 166.165 425.581 172.287C425.835 167.234 426.097 164.733 425.094 159.698C427.272 152.199 428.623 143.69 430.037 135.951Z" fill="#805521"/>
<path d="M430.037 135.951C430.638 131.4 431.77 118.34 437.539 118.527C439.841 120.616 439.889 122.037 440.53 125.078C439.287 126.396 430.511 135.683 430.037 135.951Z" fill="#734A1A"/>
<path d="M425.094 159.698C426.097 164.733 425.835 167.234 425.581 172.287C421.292 183.46 421.883 187.231 419.9 198.878C418.815 205.243 414.783 213.081 411.776 218.86C409.409 222.797 406.593 228.55 402.509 230.536C414.765 203.154 418.156 189.074 425.094 159.698Z" fill="#734A1A"/>
<path d="M438.734 156.743C440.688 154.86 440.562 154.388 442.986 153.833C444.086 155.373 444.207 157.244 444.551 159.157L446.03 159.191C447.66 167.438 449.187 176.129 452.824 183.765C450.294 186.504 450.276 187.098 449.811 190.827C448.595 188.362 449.235 188.141 446.867 186.15C445.267 187.934 446.737 192.737 446.542 195.38C444.267 189.647 442.597 182.398 441.866 176.276C441.555 172.238 440.341 166.045 439.637 161.853L438.734 156.743Z" fill="#805521"/>
<path d="M411.776 218.86C407.904 230.347 399.148 252.127 391.49 261.26L389.79 262.509C388.169 261.547 388.456 261.394 386.818 261.349C393.371 249.964 396.878 242.322 402.509 230.536C406.593 228.55 409.409 222.797 411.776 218.86Z" fill="#673B13"/>
<path d="M436.104 174.979L438.965 173.58L439.432 174.95L438.913 174.581C439.902 176.003 439.786 175.591 441.866 176.276C442.597 182.398 444.267 189.647 446.542 195.38C446.872 196.889 447.28 199.116 447.707 200.531L445.723 200.385C443.494 198.983 444.123 198.909 441.923 198.978C440.895 202.634 442.38 203.685 441.519 207.296C441.133 206.087 440.552 204.938 440.017 203.778C438.34 194.232 437.034 184.625 436.104 174.979Z" fill="#DCB66E"/>
<path d="M467.604 380.27C465.5 391.003 467.823 389.628 469.976 399.47C477.212 406.016 476.209 408.947 480.951 416.971C475.749 422.02 471.127 424.874 464.745 428.388L462.729 429.03L460.403 429.885C452.745 429.658 418.169 420.864 412.981 423.596C410.48 421.69 409.727 421.166 406.902 419.799C405.482 417.51 403.786 415.606 404.87 413.058L407.324 412.463C429.094 411.782 446.144 402.446 461.31 387.583C463.258 387.146 466.551 382.063 467.604 380.27Z" fill="#C69852"/>
<path d="M406.902 419.799C405.482 417.51 403.786 415.606 404.87 413.058L407.324 412.463C409.719 417.013 418.797 419.283 423.773 420.816C424.09 420.913 424.407 421.009 424.725 421.102C433.391 418.823 438.184 413.43 444.117 414.778C448.561 417.392 449.203 421.207 450.814 426.018C454.894 427.372 458.408 428.751 462.729 429.03L460.403 429.885C452.745 429.658 418.169 420.864 412.981 423.596C410.48 421.69 409.727 421.166 406.902 419.799Z" fill="#C69852"/>
<path d="M379.024 324.354L379.601 325.524C377.095 332.113 374.649 338.835 372.884 345.664C374.96 344.037 378.006 341.279 380.463 340.849C384.474 343.684 387.685 359.173 389.889 362.043C399.773 374.913 412.744 389.748 425.41 400.012C426.922 401.237 433.458 403.905 435.231 404.648C440.205 402.19 447.197 399.022 450.286 394.382L449.677 392.889C445.608 392.135 444.979 392.333 440.923 393.965L439.367 393.588L439.48 392.69C441.523 391.705 442.433 390.785 443.972 389.221C448.179 388.162 449.213 391.098 451.667 394.22C454.69 393.12 453.752 393.842 455.667 391.653L455.647 390.71L452.383 389.564L452.742 388.591C457.013 387.087 457.456 389.103 460.384 387.074L461.31 387.583C446.143 402.446 429.094 411.782 407.323 412.463L404.87 413.058C403.786 415.606 405.482 417.51 406.902 419.799C405.532 419.276 404.728 418.656 403.526 417.853C401.224 413.301 404.996 410.164 404.905 405.049C404.717 394.664 388.772 385.734 382.373 378.745C379.498 375.605 380.242 373.896 377.029 370.713L375.711 370.78C373.475 374.306 376.104 377.284 374.047 380.327C373.669 379.59 373.544 379.293 373.3 378.522L373.085 377.832L371.407 377.168C369.273 379.646 371.746 387.762 371.59 392.626C367.087 389.014 368.629 380.529 368.76 375.183C369.18 357.909 371.397 340.101 379.024 324.354Z" fill="#824C13"/>
<path d="M455.892 285.079C470.876 298.403 469.733 342.131 467.962 360.314C466.999 358.515 467.703 359.082 465.896 358.429C461.352 353.004 452.992 343.729 451.552 336.608C449.186 324.905 451.721 302.481 456.685 291.408C457.851 288.807 456.911 287.978 455.892 285.079Z" fill="#DCB66E"/>
<path d="M632.663 61.7334C653.117 69.0457 667.224 80.9438 677.455 100.334C688.207 120.715 679.32 141.149 686.526 157.914C689.799 165.528 712.641 183.742 719.262 191.411C732.912 207.222 752.65 236.42 761.258 254.922C761.106 248.25 760.547 240.014 758.22 233.729C750.654 223.82 739.024 196.755 734.992 184.914C728.637 166.038 731.143 140.037 736.77 121.175C738.248 116.223 739.141 107.382 744.656 106.162C748.707 107.655 751.372 112.171 753.886 115.507C766.257 131.928 783.525 155.107 784.211 176.426C790.115 204.42 768.189 225.432 767.421 249.726C767.03 262.103 780.236 291.28 783.967 305.162C788.771 323.031 790.514 335.026 791.681 353.309L790.799 353.375C789.225 346.84 789.373 343.678 789.358 336.938L788.927 337.636C787.749 339.522 787.257 340.661 785.086 341.368C782.875 341.106 782.386 341.069 780.348 340.211C778.623 346.254 784.699 355.306 781.211 360.663L781.165 359.879C779.528 334.629 764.121 266.806 745.11 250.086L744.779 250.035C733.249 248.333 721.749 250.364 710.236 249.032C671.724 244.575 668.206 224.644 641.44 205.917C639.697 204.698 639.243 203.692 638.83 201.702L639.735 200.651C646.097 198.962 661.003 198.705 667.597 198.965C708.918 203.432 719.301 220.14 744.965 248.234C739.121 231.003 734.03 224.073 721.69 210.004C719.574 207.591 715.477 202.654 712.962 201.026C703.922 189.791 669.359 155.045 656.945 154.131C619.556 151.376 602.065 143.039 576.036 116.689C572.813 113.426 559.136 105.054 558.092 103.448C560.045 100.392 569.321 101.691 573.019 101.721C593.005 101.885 613.622 106.974 630.347 118.033C646.348 127.868 659.368 148.992 673.571 155.674C663.983 141.248 643.634 118.18 640.716 102.608C637.761 86.8318 637.902 78.1922 632.663 61.7334Z" fill="#707036"/>
<path d="M734.992 184.914C728.637 166.038 731.143 140.037 736.77 121.175C738.248 116.223 739.141 107.381 744.656 106.162C748.707 107.655 751.372 112.17 753.885 115.507C766.257 131.927 783.525 155.107 784.211 176.426C783.27 190.786 783.443 191.791 767.033 190.594C759.422 190.038 752.073 192.822 744.579 193.942C743.931 194.017 738.864 189.908 737.929 189.091C736.7 185.896 737.373 186.025 734.992 184.914Z" fill="#707036"/>
<path d="M734.992 184.914C737.373 186.025 736.7 185.896 737.929 189.091C741.689 199.558 762.564 222.116 758.22 233.729C750.653 223.82 739.024 196.755 734.992 184.914Z" fill="#A49C51"/>
<path d="M781.211 360.663C784.699 355.306 778.623 346.254 780.348 340.211C782.386 341.069 782.875 341.106 785.086 341.368C787.257 340.661 787.749 339.522 788.927 337.636L789.358 336.938C789.373 343.678 789.225 346.84 790.799 353.374L791.681 353.309C792.595 356.631 792.416 359.625 792.4 363.041C793.954 370.95 792.972 379.651 794.066 388.052L795.411 387.991C795.717 388.735 796.48 390.716 796.822 391.312C794.805 396.569 794.113 401.705 793.138 407.238C793.025 410.185 793.01 413.293 792.401 416.162C792.052 420.343 790.288 434.783 791.158 437.866L791.875 438.15C792.526 440.62 792.572 441.412 794.679 443.023C789.883 452.765 786.725 463.743 783.114 474.012C778.594 486.869 773.71 500.087 770.495 513.319L771.066 514.246C773.034 512.602 773.426 511.82 774.746 509.729L776.057 514.214C768.399 519.502 755.576 546.011 748.139 555.52C721.872 589.103 689.61 616.79 652.625 638.256C650.902 639.256 641.589 644.152 640.212 644.435C633.839 648.423 627.351 651.244 620.419 654.159C594.102 665.924 555.884 678.992 527.151 681.779C514.471 685.874 493.056 686.233 479.466 686.574C466.251 687.18 447.765 687.268 434.749 686.397C407.243 686.649 362.119 680.085 335.991 671.111C333.874 668.811 321.883 666.222 316.214 663.262C316.508 662.718 316.846 662.455 317.33 662.075L314.333 659.427C318.468 660.221 333.692 665.363 337.191 662.199C335.989 661.597 330.116 660.562 328.425 660.23L328.06 659.505C331.505 655.726 335.227 662.108 341.242 659.809C350.276 661.816 367.537 664.751 377.116 665.851C407.175 675.582 488.009 675.033 518.263 665.42C528.446 663.76 538.591 661.883 548.692 659.791C561.966 654.875 577.302 651.704 591.97 646.005C595.566 644.413 598.76 642.915 602.556 641.788C608.149 638.493 614.372 636.584 619.906 634.032C629.344 629.68 652.663 618.731 659.937 612.28C665.019 609.528 678.242 600.002 682.391 596.127C695.166 587.269 731.185 551.802 736.361 537.612L737.727 536.931C738.309 534.793 738.395 534.52 739.958 532.95C749.656 519.332 757.424 504.058 758.188 487.106C757.667 482.321 757.449 480.555 755.973 475.82C755.725 471.367 757.131 470.463 759.95 466.643C760.795 471.878 761.444 475.399 761.466 480.718L762.501 483.156L763.537 483.017C766.851 478.585 768.075 470.762 769.6 465.593C776.797 441.198 777.342 421.628 774.376 396.393C778.044 394.079 777.36 393.561 777.902 389.56C778.191 391.074 778.608 391.827 779.24 393.242L780.458 393.208C783.274 387.58 781.777 367.065 781.211 360.663Z" fill="#673B13"/>
<path d="M463.182 683.82C461.095 682.766 459.735 684.356 456.834 682.574C458.894 681.641 479.238 682.598 483.878 682.084C499.338 680.373 515.032 678.197 530.546 677.456L530.684 678.43C529.149 679.664 528.349 680.196 527.152 681.779C514.471 685.874 493.056 686.234 479.466 686.575C475.818 683.684 467.85 683.953 463.182 683.82Z" fill="#673B13"/>
<path d="M620.493 650.569L620.419 654.159C594.102 665.924 555.884 678.992 527.151 681.779C528.349 680.196 529.149 679.664 530.684 678.43C542.079 682.083 606.478 656.414 620.493 650.569Z" fill="#673B13"/>
<path d="M548.692 659.791C561.966 654.875 577.302 651.705 591.97 646.005C594.273 648.85 593.659 648.806 597.585 649.854C591.359 649.914 567.897 659.679 560.037 660.734C557.437 661.082 554.607 663.582 549.748 663.309L550.125 662.527C559.323 660.295 567.412 657.409 576.286 654.307C575.518 654.575 590.447 650.956 588.496 651.041L588.111 650.004C579.072 650.367 553.42 662.79 548.692 659.791Z" fill="#673B13"/>
<path d="M463.182 683.82C467.85 683.953 475.818 683.684 479.466 686.574C466.251 687.18 447.765 687.268 434.749 686.397C445.601 685.375 451.919 684.133 463.182 683.82Z" fill="#673B13"/>
<path d="M795.411 387.991C795.717 388.735 796.48 390.716 796.822 391.312C794.804 396.569 794.113 401.704 793.138 407.238C793.025 410.184 793.01 413.292 792.4 416.162C788.992 409.311 790.03 405.822 790.961 398.332C790.534 394.622 792.708 392.368 794.858 389.424L794.066 388.051L795.411 387.991Z" fill="#673B13"/>
<path d="M755.973 475.82C755.725 471.367 757.132 470.463 759.95 466.644C760.795 471.878 761.444 475.399 761.466 480.718C761.384 482.665 761.24 484.609 761.032 486.546L759.842 487.525L758.188 487.106C757.667 482.321 757.449 480.556 755.973 475.82Z" fill="#48320F"/>
<path d="M792.4 363.041C793.954 370.95 792.972 379.651 794.066 388.052C791.791 385.195 791.703 387.115 790.066 384.854C789.345 380.072 789.852 366.977 792.4 363.041Z" fill="#673B13"/>
<path d="M620.493 650.569C628.414 648.123 626.158 644.97 640.212 644.435C633.839 648.423 627.351 651.245 620.419 654.159L620.493 650.569Z" fill="#673B13"/>
<path d="M591.97 646.005C595.566 644.413 598.76 642.915 602.556 641.788L603.097 642.835C598.247 645.947 601.054 646.499 597.586 649.854C593.659 648.805 594.273 648.85 591.97 646.005Z" fill="#673B13"/>
<path d="M103.241 212.664C106.518 210.243 109.277 204.25 110.851 203.445L113.071 205.79C115.336 202.027 115.486 197.479 120.009 197.713C123.636 202.997 120.215 209.032 119.974 214.567C114.8 223.466 105.232 239.893 104.049 250.082L107.565 251.516C101.459 268.084 95.9602 284.597 92.7061 301.957C92.4713 303.211 91.1944 310.083 90.7535 310.97C87.897 335.766 86.2029 349.152 88.5097 374.165C90.1768 394.876 94.6767 416.746 99.6413 436.885C102.141 447.027 121.68 489.899 120.28 496.369C117.432 497.314 108.713 497.427 105.247 497.568C94.1556 485.456 84.6854 457.034 79.828 440.906C56.9519 364.743 65.3656 282.72 103.241 212.664Z" fill="#673B13"/>
<path d="M88.5098 374.165C88.0623 375.507 87.6288 378.659 87.3727 380.187C86.9817 377.849 87.3858 377.78 86.0271 376.45C84.432 378.783 84.85 377.92 85.2287 381.259C80.1161 375.065 85.7228 307.848 88.8288 298.053C89.8685 304.218 87.4676 310.854 88.7241 314.226C89.5061 313.076 90.1139 312.224 90.7536 310.97C87.8971 335.766 86.203 349.152 88.5098 374.165Z" fill="#673B13"/>
<path d="M104.049 250.082L107.566 251.516C101.459 268.084 95.9603 284.597 92.7062 301.957C92.4714 303.211 91.1945 310.083 90.7536 310.97C90.1139 312.224 89.5061 313.076 88.7241 314.226C87.4676 310.854 89.8685 304.218 88.8288 298.053C89.7229 286.553 99.616 261.287 104.049 250.082Z" fill="#673B13"/>
<path d="M613.985 284.346C644.45 276.486 690.234 277.694 715.544 298.698C733.167 303.814 757.884 343.08 767.43 358.462C764.447 358.419 765.552 358.111 763.092 359.438C761.019 364.118 763.953 365.732 764.933 370.074C759.937 365.004 757.858 362.585 750.938 360.158C735.743 358.201 720.271 357.014 705.919 352.471C669.654 340.99 656.544 310.073 627.901 290.434C624.94 288.403 617.617 285.72 613.985 284.346Z" fill="#5B5C28"/>
<path d="M751.151 341.972C751.013 342.504 750.58 343.292 750.322 343.817L746.68 339.353L745.521 339.756C744.98 343.284 748.723 343.745 750.211 348.683L749.281 349.85C747.431 348.83 745.286 343.766 743.805 341.548C728.133 318.063 699.743 298.3 671.732 292.925C662.749 291.201 651.297 290.716 643.011 287.52L642.888 286.603C659.829 279.168 694.998 293.116 710.247 301.586L708.648 299.86C708.755 298.589 709.174 297.452 709.546 296.227C711.626 297.269 713.384 297.897 715.544 298.698C733.167 303.814 757.884 343.08 767.429 358.462C764.447 358.419 765.552 358.111 763.092 359.438C761.019 364.118 763.953 365.732 764.933 370.074C759.937 365.004 757.858 362.585 750.938 360.158L750.49 358.649C753.42 355.152 756.541 360.362 759.47 354.837C759.311 351.148 753.704 345.159 751.151 341.972Z" fill="#A4954F"/>
<path d="M710.247 301.586L708.648 299.86C708.755 298.589 709.174 297.452 709.546 296.227C711.626 297.269 713.384 297.897 715.544 298.698C733.167 303.814 757.884 343.08 767.43 358.462C764.447 358.419 765.552 358.111 763.092 359.438C761.019 364.118 763.953 365.732 764.933 370.074C759.937 365.004 757.858 362.585 750.938 360.158L750.49 358.648C753.42 355.152 756.541 360.362 759.47 354.837C759.311 351.147 753.704 345.159 751.151 341.972C741.07 327.938 725.058 310.429 710.247 301.586Z" fill="#5B5C28"/>
<path d="M321.771 35.6718C323.369 35.0557 328.63 33.954 330.559 33.501C331.207 36.2751 330.657 35.4355 332.402 37.2316C336.217 35.7328 337.43 35.1609 341.466 34.7736C345.736 35.656 345.031 34.8273 347.296 37.614C347.766 40.2142 347.829 42.0833 346.707 44.5652C347.944 44.3239 354.527 42.2639 355.411 41.7L354.925 39.3862C359.655 35.6011 379.404 37.8017 386.026 38.4259C340.521 45.6681 321.741 50.6539 279.63 69.4595L279.044 69.9696C210.71 100.037 147.276 163.204 116.341 230.391C113.208 237.195 110.906 244.874 107.566 251.516L104.049 250.082C105.233 239.893 114.8 223.466 119.974 214.567C120.215 209.032 123.636 202.997 120.009 197.713C115.487 197.479 115.336 202.027 113.071 205.79L110.851 203.445C109.277 204.25 106.518 210.243 103.241 212.664C119.435 181.74 149.127 138.646 177.577 117.198C183.498 109.025 209.172 91.7188 218.299 84.9279C224.881 80.2579 231.209 75.8883 238.399 72.1544L244.053 69.1777C245.068 67.9994 253.231 64.2696 255.154 63.3724C268.465 54.6656 306.771 39.3396 321.771 35.6718Z" fill="#673B13"/>
<path d="M166.991 147.785C177.463 131.472 235.088 90.8116 252.642 78.524C256.433 75.8703 268.514 70.5719 273.427 69.2495C276.515 68.4187 276.691 68.6811 279.044 69.9694C210.71 100.037 147.276 163.204 116.341 230.391C113.208 237.195 110.906 244.874 107.566 251.516L104.049 250.082C105.233 239.893 114.8 223.466 119.974 214.566C121.935 211.099 122.428 205.048 124.207 202.564C134.664 187.95 145.669 173.517 156.729 159.334C159.902 155.265 163.719 151.863 166.991 147.785Z" fill="#673B13"/>
<path d="M103.241 212.664C119.435 181.741 149.127 138.646 177.577 117.198C176.844 120.607 164.633 130.711 161.638 133.793C148.057 147.767 137.383 159.522 130.572 178.076C129.335 181.447 120.065 192.677 120.784 197.342L122.25 198.901L123.747 198.748C128.324 192.746 133.521 186.743 138.381 180.88C147.382 170.021 155.243 155.536 166.991 147.785C163.719 151.864 159.902 155.265 156.729 159.334C145.669 173.517 134.664 187.95 124.207 202.564C122.428 205.048 121.935 211.099 119.974 214.567C120.215 209.032 123.636 202.997 120.009 197.713C115.487 197.479 115.336 202.027 113.071 205.79L110.851 203.445C109.277 204.25 106.518 210.243 103.241 212.664Z" fill="#673B13"/>
<path d="M321.771 35.6718C323.369 35.0557 328.63 33.954 330.559 33.501C331.207 36.2751 330.657 35.4355 332.402 37.2316L324.853 39.5136C310.209 45.7272 292.894 50.245 278.045 56.354C270.064 59.6377 263.665 65.264 255.442 67.8982L255.154 63.3724C268.465 54.6656 306.771 39.3396 321.771 35.6718Z" fill="#673B13"/>
<path d="M321.771 35.6718C323.369 35.0557 328.63 33.954 330.559 33.501C331.207 36.2751 330.657 35.4355 332.402 37.2316L324.853 39.5136C322.583 39.8237 319.327 40.3843 317.41 39.2198C319.305 38.092 320.383 37.467 321.771 35.6718Z" fill="#673B13"/>
<path d="M346.708 44.5652C347.944 44.3239 354.527 42.2639 355.411 41.7001L354.925 39.3863C359.655 35.6012 379.404 37.8018 386.026 38.4259C340.521 45.6681 321.741 50.654 279.63 69.4595L280.085 68.389C286.108 63.2493 315.56 52.6962 324.094 46.486C323.212 47.1282 344.68 44.7612 346.708 44.5652Z" fill="#673B13"/>
<path d="M218.299 84.928C224.881 80.258 231.209 75.8884 238.399 72.1545L237.567 74.3831C238.904 75.5921 239.302 75.6382 241.026 76.3047C233.25 80.7552 227.412 85.8147 218.299 84.928Z" fill="#673B13"/>
<path d="M244.053 69.1776C245.068 67.9994 253.231 64.2696 255.154 63.3723L255.442 67.8982C253.904 68.6756 248.817 71.4126 247.494 71.6183L241.026 76.3045C239.302 75.6381 238.904 75.5919 237.567 74.3829L238.399 72.1544L244.053 69.1776Z" fill="#673B13"/>
<path d="M798.941 278.733C799.901 275.413 800.839 272.022 802.139 268.817C804.842 262.152 832.917 216.736 836.884 215.056C839.944 216.718 841.523 223.966 842.7 227.197C848.991 244.469 853.04 258.588 852.697 277.124C853.891 317.512 833.285 329.37 811.019 358.342L805.835 352.537L805.072 352.673C804.627 345.726 802.52 337.451 800.842 330.621C796.252 311.939 794.926 297.541 798.941 278.733Z" fill="#707036"/>
<path d="M798.941 278.733C799.901 275.413 800.839 272.022 802.139 268.817C804.842 262.152 832.917 216.736 836.884 215.056C839.944 216.718 841.523 223.966 842.701 227.197C848.991 244.469 853.04 258.588 852.697 277.124L852.484 277.469C851.584 278.923 851.535 278.999 851.175 280.634C849.335 279.891 849.057 279.425 847.609 278C842.324 278.922 836.934 281.846 831.518 283.082C825.514 284.451 809.726 286.435 804.107 283.389C803.09 282.837 802.246 280.424 798.941 278.733Z" fill="#707036"/>
<path d="M803.24 417.916C813.734 390.7 825.089 364.941 853.408 353.104C874.342 344.359 881.287 343.813 903.561 344.804C885.049 371.294 874.088 397.81 842.447 409.784C830.414 414.339 817.906 416.396 806.946 422.91C807.598 420.839 808.295 419.556 807.635 417.558C805.721 416.774 805.595 417.254 803.24 417.916Z" fill="#5D5F29"/>
<path d="M443.141 22.1013C477.666 22.9188 522.588 34.8963 554.351 47.7937C565.019 52.126 604.181 72.6693 608.154 82.7147L607.638 84.0241C601.359 85.5246 580.674 71.9632 573.567 69.3039C548.895 60.006 524.15 49.9242 498.421 43.8719C485.684 40.8759 473.974 39.9966 461.221 38.3974C435.085 35.12 412.005 37.0994 386.026 38.4258C379.404 37.8016 359.655 35.601 354.925 39.3861L355.411 41.6999C354.527 42.2637 347.944 44.3237 346.707 44.5651C347.829 42.0832 347.766 40.2141 347.296 37.6139C345.031 34.8272 345.736 35.6558 341.466 34.7735C346.892 33.4851 360.06 31.0112 365.25 30.9215C367.856 31.3213 370.006 31.1207 372.602 30.7876C391.245 28.3962 409.373 27.7873 428.154 27.3451C425.308 26.0252 400.214 28.1279 393.351 26.569L393.544 25.3645C394.351 24.8391 395.356 24.1842 396.56 23.3998C410.548 22.6988 429.712 23.2353 443.141 22.1013Z" fill="#673B13"/>
<path d="M682.601 392.029C699.562 395.975 715.312 401.166 729.243 412.037C746.343 425.527 757.377 445.149 759.95 466.643C757.131 470.463 755.725 471.367 755.973 475.82C748.043 458.543 734.661 461.943 719.791 452.766C693.698 436.664 689.829 418.483 682.601 392.029Z" fill="#5D5726"/>
<path d="M207.015 518.643C210.865 519.856 221.666 523.01 224.786 524.539C226.968 525.897 227.739 526.546 230.373 526.847C228.802 528.392 227.752 529.443 226.33 531.179C226.831 533.072 226.401 532.559 227.77 533.576C227.821 534.943 228.255 535.271 229.1 536.354C239.204 541.095 247.708 533.826 257.662 533.128C279.858 531.57 301.245 530.534 323.359 527.727L324.489 530.84C317.262 532.342 297.585 535.539 295.514 543.285C297.177 549.366 306.098 551.16 311.811 552.681C306.489 556.271 300.622 555.296 297.507 557.174C269.71 555.399 211.049 553.23 186.056 545.638L183.002 543.006L183.185 542.339L185.174 541.828C185.977 539.189 184.545 537.262 183.342 534.205C184.428 533.808 187.207 533.194 188.463 532.877C191.216 532.992 204.265 530.183 207.282 529.554C210.104 529.747 212.126 527.978 213.626 525.927C209.947 525.216 207.085 524.983 204.238 522.524C206.622 521.222 205.892 521.734 207.015 518.643Z" fill="#4A2A0B"/>
<path d="M207.015 518.643C210.865 519.856 221.666 523.01 224.786 524.539C219.27 527.616 219.263 525.08 213.626 525.927C209.947 525.216 207.085 524.983 204.238 522.524C206.622 521.222 205.892 521.734 207.015 518.643Z" fill="#3F220E"/>
<path d="M550.635 532.243C553.585 532.58 557.143 532.891 559.988 533.53C564.122 534.272 577.768 536.086 579.109 540.407C576.071 546.7 555.861 548.997 548.649 550.022L537.375 551.421L531.406 551.931C528.418 551.732 525.195 552.41 522.218 552.903C512.958 551.423 504.477 556.011 494.404 552.82C490.441 552.631 487.297 553.94 483.551 555.17C482.843 555.202 481.422 555.181 480.859 555.426C474.528 555.52 473.713 554.218 468.907 557.856C466.836 557.488 467.592 557.796 465.953 556.045L465.56 557.249C468.574 561.671 471.289 562.448 470.769 565.494C445.567 565.899 420.391 564.958 395.175 564.561C386.642 564.953 373.613 564.458 364.818 564.328C353.131 564.156 331.156 564.99 319.972 563.151C322.408 561.69 338.688 559.01 342.275 558.595L396.186 560.076C408.997 560.193 415.519 559.532 428.033 557.767C442.873 554.048 457.687 550.22 472.47 546.284L474.481 547.857L471.542 549.946L471.589 551.029C474.642 551.355 475.685 551.105 478.69 550.646L485.94 548.157C488.483 546 490.597 545.455 493.754 544.31L494.408 544.834C495.877 543.68 500.824 539.82 502.143 539.319C506.255 537.755 516.511 538.077 519.645 535.677L526.481 535.23C541.126 536.29 537.827 532.45 550.635 532.243Z" fill="#744818"/>
<path d="M472.47 546.284L474.481 547.858L471.542 549.946L471.589 551.03C474.642 551.355 475.685 551.106 478.69 550.646L485.94 548.157C481.886 553.833 480.598 549.625 478.863 553.558C486.96 556.555 491.48 548.768 496.557 547.777C496.614 549.678 495.928 549.974 494.665 551.807C499.44 555.451 527.591 547.816 537.375 551.421L531.406 551.931C528.418 551.732 525.195 552.41 522.218 552.903C512.958 551.423 504.477 556.011 494.404 552.82C490.441 552.631 487.297 553.94 483.551 555.17C482.843 555.202 481.422 555.181 480.859 555.426C474.528 555.52 473.713 554.218 468.907 557.856C466.836 557.488 467.592 557.796 465.953 556.045L465.56 557.249C468.574 561.672 471.289 562.448 470.769 565.494C445.567 565.899 420.391 564.958 395.175 564.561C386.642 564.953 373.613 564.458 364.818 564.329C353.131 564.156 331.156 564.99 319.972 563.151C322.408 561.69 338.688 559.01 342.275 558.595L396.186 560.076C408.997 560.193 415.519 559.532 428.033 557.767C442.873 554.048 457.687 550.221 472.47 546.284Z" fill="#734A1A"/>
<path d="M342.275 558.595L396.186 560.076C401.689 560.486 418.804 560.528 422.447 561.269L416.508 561.991L416.861 563.101L419.402 563.215C416.902 565.024 399.97 564.072 395.175 564.56C386.642 564.952 373.613 564.458 364.818 564.328C353.131 564.156 331.156 564.99 319.972 563.151C322.408 561.69 338.688 559.009 342.275 558.595Z" fill="#352114"/>
<path d="M472.47 546.284L474.481 547.858L471.542 549.946L471.589 551.03C474.642 551.355 475.685 551.106 478.69 550.646C476.199 553.073 468.515 553.738 464.667 554.088C452.517 555.191 440.023 561.38 428.033 557.767C442.873 554.048 457.687 550.221 472.47 546.284Z" fill="#A07538"/>
<path d="M301.556 455.63C304.201 454.61 304.88 453.742 306.903 454.58C307.65 462.268 289.32 492.263 284.585 499.523C282.009 502.466 277.939 507.755 275.478 510.273C269.042 517.203 266.255 519.954 257.786 524.126L256.431 523.383L254.571 527.016L240.725 530.332C236.082 531.867 232.689 532.88 227.77 533.576C226.401 532.56 226.831 533.072 226.33 531.179C227.752 529.444 228.802 528.392 230.373 526.848L231.212 523.967L235.411 524.246L237.253 520.864C239.671 523.319 239.319 523.739 242.189 524.434C243.552 522.734 243.664 520.429 243.657 518.189C243.621 506.037 264.613 461.632 277.795 460.266L278.929 461.382C279.574 463.19 279.706 463.413 280.949 464.885C285.091 465.448 295.86 458.087 301.556 455.63ZM257.134 493.192C254.303 499.198 249.326 509.164 248.677 515.469C249.445 516.504 249.329 516.208 250.795 516.731C255.916 513.952 258.845 499.912 260.169 494.527C265.626 486.233 272.504 477.44 277.914 469.066C278.819 467.666 278.091 466.427 277.585 465.116C269.447 471.223 261.382 484.098 257.134 493.192Z" fill="#673B13"/>
<path d="M277.585 465.115C278.091 466.427 278.819 467.666 277.914 469.066C272.504 477.44 265.626 486.233 260.169 494.527L257.134 493.192C261.382 484.098 269.447 471.223 277.585 465.115Z" fill="#8D6749" fill-opacity="0.976471"/>
<path d="M257.134 493.192L260.169 494.527C258.845 499.912 255.916 513.952 250.795 516.731C249.329 516.208 249.445 516.504 248.677 515.469C249.326 509.164 254.303 499.199 257.134 493.192Z" fill="#744818" fill-opacity="0.984314"/>
<path d="M237.253 520.864C239.671 523.318 239.319 523.739 242.189 524.434C243.552 522.734 243.664 520.428 243.657 518.189C243.621 506.037 264.613 461.632 277.795 460.266L278.929 461.381C278.573 462.686 278.348 464.08 277.585 465.115C269.447 471.223 261.382 484.098 257.134 493.192C254.303 499.198 249.326 509.164 248.677 515.468C248.467 518.065 248.109 517.409 249.385 518.946C258.554 520.244 266.436 505.427 273.064 504.685L273.503 504.716C273.475 507.631 272.838 508.318 275.478 510.273C269.042 517.203 266.255 519.954 257.786 524.126L256.431 523.382L254.571 527.016L240.725 530.332C236.082 531.867 232.689 532.88 227.77 533.576C226.401 532.56 226.831 533.072 226.33 531.179C227.752 529.444 228.802 528.392 230.373 526.848L231.212 523.967L235.411 524.246L237.253 520.864Z" fill="#3F220E"/>
<path d="M273.064 504.685L273.503 504.716C273.475 507.631 272.838 508.318 275.478 510.273C269.042 517.203 266.255 519.954 257.786 524.126L256.431 523.382L255.496 522.918C256.579 519.216 269.1 510.215 273.064 504.685Z" fill="#3F220E"/>
<path d="M231.212 523.967L235.411 524.245C238.308 524.156 237.165 523.874 239.723 525.411C240.742 527.747 241.215 527.514 239.727 529.856L240.725 530.332C236.082 531.866 232.689 532.879 227.77 533.576C226.401 532.559 226.831 533.072 226.33 531.179C227.752 529.443 228.802 528.391 230.373 526.847L231.212 523.967Z" fill="#3F220E"/>
<path d="M301.556 455.63C304.201 454.61 304.88 453.742 306.903 454.58C307.65 462.268 289.32 492.263 284.585 499.523C282.009 502.466 277.939 507.755 275.478 510.273C272.838 508.318 273.475 507.631 273.503 504.716C283.925 495.684 302.936 469.474 301.556 455.63Z" fill="#3F220E"/>
<path d="M297.743 589.974C300.599 589.793 304.376 589.82 307.26 589.929C345.773 591.386 383.914 588.222 422.376 587.388C436.551 587.081 450.706 588.279 464.911 588.235C482.334 587.529 503.551 591.321 518.197 590.625C536.527 591.225 550.462 591.049 568.645 590.508L567.19 592.096C570.207 593.554 576.618 592.775 580.734 593.528C513.98 598.979 446.545 591.273 379.976 598.554C371.367 599.496 363.367 600.236 354.695 600.121C329.11 598.038 316.805 601.546 289.165 595.85L288.679 594.897C284.662 594.358 280.656 593.747 276.664 593.061C285.391 590.232 292.081 592.183 297.743 589.974Z" fill="#3F220E"/>
<path d="M335.991 671.111C311.213 668.203 254.717 642.654 232.518 628.946C225.404 624.553 183.527 597.852 182.006 591.582L183.422 590.47C186.804 590.092 192.545 591.976 195.454 593.727C222.399 609.95 250.485 625.908 279.424 638.447C298.636 646.771 321.114 653.464 341.242 659.809C335.227 662.108 331.505 655.726 328.06 659.505L328.425 660.23C330.116 660.562 335.989 661.597 337.191 662.199C333.692 665.363 318.468 660.221 314.333 659.427C311.633 655.554 301.698 653.333 297.175 652.912C299.05 655.317 311.175 659.704 314.333 659.427L317.33 662.075C316.846 662.455 316.508 662.718 316.214 663.263C321.883 666.222 333.874 668.811 335.991 671.111ZM258.106 637.596L257.968 634.856C254.901 632.875 249.64 629.342 246.169 628.864C246.713 633.65 253.798 636.247 258.106 637.596Z" fill="#673B13"/>
<path d="M246.169 628.864C249.639 629.342 254.901 632.875 257.968 634.856L258.106 637.596C253.797 636.247 246.713 633.65 246.169 628.864Z" fill="#673B13"/>
<path d="M259.717 621.335C270.482 620.173 280.227 621 291.035 621.325L379.56 622.013C391.929 622.053 410.615 622.773 422.517 622.096C452.54 622.641 491.759 623.442 521.692 621.773C523.441 622.687 523.969 622.776 524.958 624.372C459.336 634.348 380.584 633.42 314.666 627.719C299.801 626.433 273.492 624.864 259.717 621.335Z" fill="#673B13"/>
<path d="M774.746 509.73C785.334 492.706 796.119 477.854 816.876 472.792C828.263 470.016 842.202 470.888 852.664 468.356C841.179 487.98 827.755 500.937 805.177 507.044C794.792 509.854 784.628 508.362 776.057 514.214L774.746 509.73Z" fill="#474418"/>
<path d="M312.778 542.279C325.394 533.909 345.218 532.707 360.305 532.438L361.111 532.579C365.701 533.358 373.207 532.899 376.091 533.933L376.134 535.525L375.399 536.445C372.004 536.391 368.702 536.036 365.689 537.543L364.868 538.845C366.638 539.892 370.531 539.574 372.424 539.01C378.221 539.01 384.469 537.896 391.667 537.939C400.729 538.118 415.043 541.664 424.266 543.654C396.915 558.981 339.968 557.018 312.778 542.279ZM376.136 548.939C380.079 548.276 392.297 548.018 394.515 545.942C386.858 544.997 371.183 544.896 363.058 544.894L362.542 545.012C359.946 545.58 358.525 545.614 355.871 545.73L362.742 546.607L363.083 547.271C359.311 548.663 354.428 546.73 353.07 548.195C357.376 548.427 373.31 550.028 376.136 548.939Z" fill="#744818" fill-opacity="0.984314"/>
<path d="M363.058 544.894C371.183 544.896 386.858 544.996 394.515 545.941C392.297 548.018 380.079 548.276 376.137 548.939C373.31 550.028 357.376 548.427 353.07 548.195C354.428 546.73 359.312 548.663 363.083 547.271L362.742 546.607L355.871 545.73C358.525 545.613 359.946 545.58 362.542 545.012L363.058 544.894Z" fill="#734A1A" fill-opacity="0.905882"/>
<path d="M592.743 528.896L596.209 526.635C600.564 529.95 602.165 529.536 607.783 528.935C617.526 529.208 614.315 529.686 622.166 532.189L623.473 532.4C629.08 533.727 647.736 535.198 653.451 534.399C653.521 531.406 651.904 534.45 648.791 530.592L649.233 528.248C653.714 529.631 669.321 532.508 667.58 538.078C662.374 542.442 648.423 544.686 641.82 546.596C630.175 549.225 618.42 551.353 606.588 552.977C600.695 549.83 591.314 555.2 584.326 552.361C581.45 549.503 582.228 550.865 581.362 546.81C586.874 545.7 592.375 545.152 596.22 541.126C597.899 535.09 589.146 533.961 584.592 532.666C587.129 530.641 586.872 531.466 587.511 528.797L592.743 528.896Z" fill="#673B13"/>
<path d="M592.743 528.896L596.209 526.635C600.564 529.95 602.165 529.536 607.783 528.935C617.526 529.208 614.315 529.686 622.166 532.189L621.757 532.286C613.474 534.213 599.937 533.293 592.743 528.896Z" fill="#8E632D"/>
<path d="M640.878 471.693L651.446 468.471C642.259 489.384 632.14 501.603 611.643 512.567C603.585 522.957 591.946 519.767 587.511 528.797C586.872 531.467 587.129 530.641 584.592 532.666C577.889 531.37 574.341 530.65 567.57 530.46C568.344 530.038 569.125 528.076 569.495 527.247C570.56 526.165 571.566 524.8 572.52 523.599C574.784 522.174 577.656 518.417 579.501 516.241C581.137 516.826 581.76 516.964 583.471 517.294L585.372 515.95C584.967 517.125 584.799 518.461 584.588 519.697L585.542 520.739C591.979 519.898 605.192 497.229 610.65 490.963L611.174 490.368C616.075 484.37 632.833 473.618 640.878 471.693Z" fill="#4D3A0F"/>
<path d="M611.174 490.368L611.143 491.156C610.759 499.485 605.703 502.999 606.021 507.58C608.942 509.853 610.752 507.528 613.971 506.585L614.266 508.498C612.525 510.385 612.024 510.309 611.643 512.567C603.585 522.957 591.946 519.767 587.511 528.797C586.872 531.466 587.129 530.641 584.592 532.666C577.889 531.37 574.341 530.65 567.57 530.46C568.344 530.038 569.125 528.076 569.495 527.247C570.56 526.165 571.566 524.8 572.52 523.599C574.784 522.174 577.656 518.417 579.501 516.241C581.137 516.826 581.76 516.964 583.471 517.294L585.372 515.949C584.967 517.125 584.799 518.461 584.588 519.697L585.542 520.739C591.979 519.898 605.192 497.229 610.65 490.963L611.174 490.368Z" fill="#4A2A0B"/>
<path d="M640.878 471.693L651.446 468.471C642.259 489.384 632.14 501.603 611.643 512.567C612.024 510.309 612.525 510.385 614.267 508.498L613.971 506.585C625.436 502.634 636.41 489.027 641.238 478.303C642.662 475.138 641.988 474.617 640.878 471.693Z" fill="#673B13"/>
<path d="M229.355 408.568L230.905 406.898L232.239 407.266C239.76 431.801 235.715 452.539 225.813 475.091L221.874 485.203L221.707 483.569C219.271 480.111 216.77 485.123 211.831 482.112C210.904 479.835 210.857 479.539 210.979 477.086C211.794 472.451 210.137 461.14 211.315 452.648C211.606 445.776 214.258 437.287 216.686 430.88C220.739 423.349 224.963 415.91 229.355 408.568Z" fill="#673B13"/>
<path d="M229.355 408.568L230.905 406.898L232.239 407.266C239.76 431.801 235.715 452.539 225.813 475.091L223.567 476.748L222.441 476.493L222.491 473.601C231.216 456.138 231.327 446.087 231.011 427.455C231.434 422.203 231.142 413.379 229.355 408.568Z" fill="#3F220E"/>
<path d="M210.979 477.086C211.794 472.451 210.137 461.14 211.315 452.648C211.575 458.758 215.571 471.825 217.203 478.511L218.317 479.007C221.249 476.522 220.822 475.52 222.491 473.601L222.441 476.493L223.567 476.748L225.813 475.091L221.874 485.203L221.707 483.569C219.271 480.111 216.77 485.123 211.831 482.112C210.904 479.835 210.857 479.539 210.979 477.086Z" fill="#3F220E"/>
<path d="M229.355 408.567C231.142 413.378 231.434 422.202 231.011 427.455C230.675 424.666 230.779 422.088 228.95 420.169C225.637 421.22 223.725 430.146 220.378 433.607L218.659 433.871C217.297 432.637 217.272 432.588 216.686 430.88C220.739 423.349 224.963 415.91 229.355 408.567Z" fill="#4B2B0C"/>
<path d="M459.418 515.981C490.365 514.277 532.002 518.338 563.62 519.699C560.456 520.756 560.927 520.057 559.523 522.38C561.578 525.493 565.84 526.253 569.495 527.247C569.125 528.076 568.344 530.038 567.57 530.46L561.501 530.425C555.163 529.392 547.748 528.84 541.32 528.243C539.458 527.729 535.121 527.282 533.004 527.011C528.621 526.267 522.877 524.776 518.885 526.42C521.101 528.213 526.008 528.392 529.056 528.739L534.959 529.802C541.004 531.777 545.715 530.628 550.635 532.243C537.827 532.45 541.126 536.29 526.481 535.23L529.724 534.742L530.05 534.138C526.746 532.95 517.517 532.184 513.558 531.752C496.847 528.748 479.915 527.111 462.932 526.856C463.061 525.843 460.137 519.076 459.418 515.981Z" fill="#A07538"/>
<path d="M323.344 517.899C335.188 517.92 347.088 516.655 358.889 516.402C392.025 515.691 426.332 514.463 459.418 515.981C460.137 519.076 463.061 525.843 462.932 526.856C451.297 526.895 406.479 525.977 397.942 529.595L397.236 527.287C393.156 524.03 377.079 525.055 371.986 526.248L370.987 524.831C367.861 523.808 362.959 524.68 359.139 524.147C354.239 521.071 334.503 522.092 327.566 522.087C327.458 521.129 327.272 520.087 327.124 519.125L323.344 517.899Z" fill="#8A6229"/>
<path d="M140.384 409.662C162.07 417.773 180.651 424.566 190.885 447.062C191.836 449.163 192.761 451.275 193.662 453.396C194.292 446.265 193.189 440.437 193.533 434.413L190.923 422.351L190.895 417.346L191.848 416.589C194.188 418.555 193.819 418.849 196.469 419.268C198.253 417.399 198.154 415.219 198.492 412.538C200.611 412.296 201.515 413.064 203.205 414.452C202.433 417.062 199.878 426.22 198.862 428.108C197.024 438.741 204.35 468.695 210.979 477.086C210.857 479.538 210.904 479.835 211.831 482.112C216.77 485.123 219.271 480.111 221.707 483.569L221.874 485.203C220.271 497.643 228.292 512.484 237.253 520.864L235.411 524.246L231.212 523.967C227.051 516.635 221.299 507.799 216.71 500.111C209.003 487.197 202.594 467.132 192.506 457.354C190.362 455.274 174.587 447.29 169.628 444.019C169.662 442.695 169.118 442.138 168.401 440.982L168.097 440.499C174.303 441.486 180.163 448.741 185.345 448.386C188.744 440.164 158.097 418.32 151.207 420.582L150.978 421.864C152.174 423.545 152.476 423.812 153.054 425.745L150.499 427.379C144.88 420.664 143.33 417.871 140.384 409.662Z" fill="#4A2A0B"/>
<path d="M198.492 412.538C200.611 412.296 201.515 413.063 203.205 414.452C202.433 417.062 199.878 426.22 198.862 428.108C197.534 425.805 196.822 423.889 194.501 422.792C192.295 425.379 193.774 430.916 193.533 434.413L190.923 422.351L190.895 417.346L191.848 416.589C194.188 418.555 193.819 418.848 196.469 419.268C198.253 417.399 198.154 415.219 198.492 412.538Z" fill="#42240D"/>
<path d="M74.7205 562.703C81.0953 561.734 79.9116 557.631 89.1283 558.783C106.109 560.628 108.544 566.063 122.645 570.656C134.77 574.605 154.508 568.019 167.968 571.977C165.774 572.247 160.685 572.458 159.451 573.66C162.945 574.921 174.253 577.154 177.281 574.945L177.006 573.838C173.646 572.65 170.728 572.881 168.524 572.075C178.022 571.813 184.343 571.935 193.94 572.765C197.804 573.098 207.525 574.151 210.936 574.071C216.267 575.493 221.094 574.686 224.412 575.943L224.598 577.899C227.844 579.341 230.566 578.663 233.906 577.861L233.659 576.894C237.923 575.643 236.855 579.755 243.414 576.547C249.224 576.988 255.031 577.474 260.833 578.006L257.426 578.599L257.056 579.151L256.289 579.269L259.21 579.938C258.783 584.703 247.793 583.29 244.2 583.446C233.635 583.11 222.284 581.203 212.464 581.099C208.882 580.645 205.569 580.605 201.979 580.59C168.573 580.449 134.573 577.062 101.749 571.002C93.9202 569.556 82.688 565.188 74.7205 562.703Z" fill="#855A29" fill-opacity="0.984314"/>
<path d="M96.0757 524.182L101.51 522.777C100.877 525.412 99.711 528.101 101.766 530.295C102.145 534.106 102.237 534.582 105.859 536.638L122.131 541.92C128.474 543.357 137.678 545.242 143.652 547.233L158.404 549.397C151.614 555.924 150.186 549.735 144.108 554.97C139.062 555.468 134.164 554.802 129.326 553.402C120.449 551.354 65.8754 542.41 67.9107 532.675C72.5158 529.028 89.5732 525.713 96.0757 524.182Z" fill="#56320C"/>
<path d="M143.652 547.233L158.404 549.397C151.613 555.924 150.186 549.735 144.108 554.97C139.062 555.468 134.163 554.802 129.326 553.403C134.74 553.322 135.942 553.922 139.474 549.741L143.652 547.233Z" fill="#4D3A0F"/>
<path d="M122.131 541.92C128.474 543.357 137.678 545.242 143.652 547.233L139.474 549.741C130.305 547.483 129.529 548.921 119.693 544.764L122.131 541.92Z" fill="#673B13"/>
<path d="M96.0756 524.182L101.51 522.777C100.877 525.412 99.7109 528.101 101.766 530.295C102.145 534.106 102.237 534.582 105.859 536.638C104.227 538.108 103.96 538.311 103.348 540.392C90.9434 536.876 102.015 533.541 96.0756 524.182Z" fill="#3F220E"/>
<path d="M103.348 540.392C103.96 538.311 104.227 538.108 105.859 536.639L122.131 541.92L119.693 544.764C116.071 543.048 110.474 543.992 103.348 540.392Z" fill="#673B13"/>
<path d="M94.2718 555.911C106.546 556.783 136.334 558.765 147.519 560.763C156.633 562.777 160.609 563.385 169.818 564.198L175.379 565.089C181.412 565.575 198.792 569.054 201.891 568.862C206.045 569.239 211.493 569.577 215.524 570.122L215.686 571.365C217.858 571.721 219.958 571.825 221.708 573.038L210.936 574.071C207.524 574.151 197.804 573.098 193.94 572.765C184.342 571.935 178.022 571.813 168.524 572.075L167.968 571.978C154.508 568.019 134.77 574.605 122.645 570.656C108.544 566.063 106.109 560.628 89.1281 558.783C91.0611 558.372 91.8333 558.176 93.6673 557.454L94.2718 555.911Z" fill="#6A4318" fill-opacity="0.988235"/>
<path d="M537.292 576.754C539.387 575.88 637.4 570.722 645.229 570.197C640.316 575.709 632.021 571.847 632.858 575.786C609.387 582.037 575.932 581.73 551.235 584.212C543.167 585.022 532.182 585.426 524.388 587.06L520.255 586.285L524.696 585.163L522.638 585.1C520.29 585.038 519.466 585.308 517.552 583.934L517.639 582.151C525.569 579.427 527.847 581.608 536.85 576.985L537.292 576.754Z" fill="#734A1A"/>
<path d="M445.975 604.579C452.221 604.138 462.929 604.458 469.729 604.395L519.647 603.676C541.958 603.178 569.359 600.728 590.895 601.296C596.542 603.206 598.721 601.283 601.653 604.187C545.212 610.207 488.328 611.028 431.734 606.641C434.767 604.887 440.572 606.044 445.975 604.579Z" fill="#98764A"/>
<path d="M596.855 456.963C598.446 454.043 597.879 454.016 600.383 452.622C603.924 455.508 601.217 471.575 600.917 476.529C600.184 488.609 594.39 499.594 588.296 509.846C587.38 512.071 586.726 513.941 585.372 515.949L583.471 517.294C581.76 516.964 581.137 516.826 579.501 516.241C582.061 508.638 581.312 497.369 583.073 488.42C583.051 477.472 590.451 465.417 596.855 456.963Z" fill="#734A1A"/>
<path d="M596.855 456.963C597.1 458.588 597.84 462.896 597.854 464.299C584.877 477.061 585.883 478.711 584.548 497.596C584.406 499.609 584.595 503.283 585.296 505.054L586.791 506.001L586.124 506.657L586.167 508.554C587.21 509.37 587.094 509.449 588.296 509.846C587.38 512.07 586.726 513.941 585.372 515.949L583.471 517.293C581.76 516.964 581.137 516.825 579.501 516.241C582.061 508.638 581.312 497.369 583.073 488.42C583.051 477.472 590.451 465.417 596.855 456.963Z" fill="#4A2A0B"/>
<path d="M583.073 488.42C584.432 494.211 583.02 501.853 584.469 505.665L586.124 506.657L586.167 508.554C587.21 509.37 587.094 509.449 588.296 509.846C587.38 512.07 586.726 513.941 585.372 515.949L583.471 517.293C581.76 516.964 581.137 516.825 579.501 516.241C582.061 508.638 581.312 497.369 583.073 488.42Z" fill="#673B13"/>
<path d="M596.855 456.963C598.446 454.043 597.879 454.016 600.383 452.622C603.924 455.508 601.217 471.575 600.916 476.529C600.184 488.609 594.39 499.594 588.296 509.846C587.094 509.449 587.21 509.37 586.167 508.554L586.124 506.657L586.791 506.001C596.014 498.707 598.148 475.045 597.854 464.299C597.84 462.897 597.1 458.588 596.855 456.963Z" fill="#673B13"/>
<path d="M157.753 513.028C166.817 512.882 173.402 512.539 182.298 515.295C189.254 517.449 197.24 521.199 204.238 522.524C207.085 524.983 209.947 525.216 213.626 525.927C212.126 527.978 210.105 529.747 207.282 529.554C201.308 527.148 192.452 529.269 185.839 530.134C182.08 531.125 180.644 531.675 176.823 531.3C175.586 530.006 173.121 529.899 170.561 528.579L170.368 527.694C169.148 526.701 148.422 521.5 144.666 520.456C145.003 519.855 145.446 516.343 145.779 515.141C148.156 512.774 151.585 514.296 157.753 513.028Z" fill="#4A2A0B" fill-opacity="0.984314"/>
<path d="M192.353 373.386C193.157 370.671 192.526 371.41 194.486 370.143C200.985 372.272 205.205 392.823 205.301 399.037C204.957 405.341 204.493 408.252 203.205 414.452C201.515 413.063 200.611 412.296 198.492 412.538C198.154 415.219 198.253 417.399 196.469 419.268C193.819 418.848 194.188 418.554 191.848 416.589L190.895 417.346L190.923 422.351C185.363 400.871 188.565 393.757 192.353 373.386Z" fill="#734A1A"/>
<path d="M192.353 373.386C193.157 370.671 192.526 371.41 194.486 370.143C200.985 372.272 205.205 392.823 205.301 399.037C200.275 394.488 201.947 394.086 198.261 389.56C196.717 379.934 191.937 381.837 192.353 373.386Z" fill="#3F220E"/>
<path d="M198.261 389.56C201.947 394.086 200.275 394.488 205.301 399.037C204.957 405.341 204.493 408.252 203.205 414.452C201.515 413.063 200.611 412.296 198.492 412.538C197.428 404.714 200.707 399.699 198.261 389.56Z" fill="#4A2A0B"/>
<path d="M399.973 579.526C429.154 578.479 458.444 580.222 487.811 579.987C506.015 579.84 519.967 577.702 537.292 576.754L536.85 576.985C527.847 581.608 525.569 579.427 517.639 582.151L517.552 583.934C519.466 585.308 520.29 585.038 522.638 585.1L524.697 585.163L520.255 586.286C515.321 587.073 504.317 586.099 498.816 586.018C488.067 585.859 477.2 585.58 466.462 585.089C455.183 584.439 446.366 583.176 434.579 583.029C418.698 582.951 415.335 583.43 399.973 579.526Z" fill="#987342"/>
<path d="M642.717 520.319C653.303 521.002 701.537 530.201 702.452 541.194C700.06 549.103 672.614 554.055 664.684 557.847C646.87 561.852 606.166 569.561 588.789 565.948C589.691 565.096 589.768 564.258 590.097 563.053C599.795 569.285 651.045 555.912 661.706 555.39C668.357 555.352 689.127 546.598 695.824 541.556L695.83 540.425C693.861 537.895 689.169 536.359 685.92 534.663C678.481 529.199 653.848 524.529 645.234 525.007L646.414 523.824L643.884 523.318L642.717 520.319Z" fill="#4A2A0B"/>
<path d="M305.473 579.985C336.654 581.596 368.791 580.815 399.973 579.526C415.335 583.43 418.698 582.951 434.579 583.029C401.505 583.095 369.344 584.611 336.377 584.545C325.27 584.523 307.748 585.724 297.463 584.993C292.667 583.816 284.749 584.83 281.1 583.312L281.209 582.337L283.835 581.339L282.75 580.43L291.062 579.922C294.442 579.959 302.454 580.247 305.473 579.985Z" fill="#673B13"/>
<path d="M235.95 563.275C243.505 563.904 261.315 564.324 267.31 565.407L280.944 565.762C292.847 566.917 315.291 567.643 328.041 568.11L334.504 569.379C333.132 570.329 329.159 570.891 327.331 571.24L324.508 571.522C306.579 570.264 284.948 571.878 266.58 570.221C261.072 569.724 253.064 570.147 247.809 568.969C243.947 568.979 233.942 567.283 229.672 566.659C230.659 566.343 233.647 564.26 235.95 563.275Z" fill="#673B13"/>
<path d="M235.95 563.275C243.505 563.904 261.315 564.324 267.31 565.407C261.711 565.98 244.308 564.485 242.493 566.591C244.506 567.73 245.695 568.166 247.809 568.969C243.947 568.979 233.942 567.283 229.672 566.659C230.659 566.343 233.647 564.26 235.95 563.275Z" fill="#3F220E"/>
<path d="M645.134 552.224C650.328 551.197 657.7 549.072 662.975 547.708L667.939 549.187L667.955 549.876L664.787 550.773C643.049 555.79 621.872 560.191 599.466 561.12C596.825 561.23 592.34 561.709 590.097 563.053C589.768 564.258 589.691 565.096 588.789 565.948C578.617 565.043 571.706 564.653 561.511 564.63L560.962 561.317C577.986 559.034 596.125 558.576 613.498 556.116C624.07 554.619 634.098 555.478 645.134 552.224Z" fill="#734A1A"/>
<path d="M470.769 565.494C471.289 562.448 468.574 561.671 465.56 557.249L465.953 556.045C467.592 557.796 466.836 557.488 468.908 557.856C473.713 554.218 474.528 555.52 480.859 555.426L482.425 556.405L477.899 556.912L477.216 557.827C478.971 559.124 486.22 558.725 488.438 558.422L490.568 559.802C485.819 560.275 479.085 560.772 474.621 561.759C493.011 566.326 527.498 565.193 547.865 565.549C552.153 569.283 572.61 568.559 580.639 569.431C565.176 572.437 554.56 569.966 539.123 569.096C526.111 568.361 512.776 568.375 499.733 567.695C490.131 567.194 480.325 565.595 470.769 565.494Z" fill="#8E632D"/>
<path d="M150.499 427.379L153.054 425.745C152.476 423.812 152.174 423.545 150.978 421.864L151.207 420.581C158.097 418.32 188.744 440.164 185.345 448.386C180.162 448.741 174.303 441.486 168.097 440.499L168.401 440.982C169.118 442.138 169.662 442.695 169.628 444.019C160.892 438.815 156.332 436.002 150.499 427.379Z" fill="#4A2A0B" fill-opacity="0.984314"/>
<path d="M568.646 590.508C570.537 590.142 587.522 588.792 588.236 588.871C595.962 589.736 670.216 578.246 672.639 579.674C658.243 584.897 646.449 585.209 631.385 587.677C617.261 590.525 595.409 592.169 580.734 593.528C576.618 592.775 570.207 593.554 567.19 592.096L568.646 590.508Z" fill="#673B13"/>
<path d="M549.083 552.866C559.66 552.274 570.995 549.269 581.362 546.81C582.228 550.865 581.45 549.503 584.326 552.361C591.314 555.2 600.695 549.83 606.588 552.977C594.524 555.047 544.717 558.213 533.207 557.357C529.698 556.037 526.809 556.072 523.107 555.872C527.578 555.795 531.122 555.074 535.512 554.389C539.21 554.377 543.144 554.621 546.602 553.428L549.083 552.866Z" fill="#734A1A"/>
<path d="M144.666 520.456C141.671 518.167 139.071 516.278 139.469 512.388C143.339 507.106 164.341 508.617 170.667 509.593C182.355 510.284 195.923 514.911 207.015 518.643C205.892 521.734 206.622 521.222 204.238 522.524C197.239 521.199 189.254 517.449 182.298 515.295C173.402 512.539 166.817 512.882 157.753 513.028C151.585 514.296 148.156 512.774 145.779 515.141C145.446 516.343 145.003 519.855 144.666 520.456Z" fill="#673B13"/>
<path d="M144.666 520.456C141.671 518.167 139.071 516.278 139.469 512.388C143.339 507.106 164.341 508.617 170.667 509.593C160.734 509.823 152.247 509.854 142.462 511.88C148.19 512.578 151.992 512.918 157.753 513.028C151.585 514.296 148.156 512.774 145.779 515.141C145.446 516.343 145.003 519.855 144.666 520.456Z" fill="#673B13"/>
<path d="M298.96 519.802L299.762 519.953C308.027 521.469 306.456 518.865 313.877 523.007C301.558 525.793 265.137 532.096 254.571 527.016L256.432 523.382L257.786 524.126C265.813 526.566 286.262 520.461 298.96 519.802Z" fill="#3F220E"/>
<path d="M53.5206 557.541C52.9216 557.407 52.3241 557.267 51.7285 557.119C42.6229 554.863 23.3718 548.46 18.5437 540.458L18.9412 539.179C22.2263 538.809 23.4692 540.439 26.5521 541.753C37.2592 546.315 49.1474 548.324 60.5179 551.005C62.2973 553.352 63.0077 553.459 63.1747 556.002C61.2006 557.643 56.655 557.04 53.5206 557.541Z" fill="#673B13"/>
<path d="M364.4 26.206C377.27 21.4644 429.376 20.0859 443.141 22.1012C429.712 23.2353 410.548 22.6987 396.56 23.3997C395.356 24.1842 394.351 24.839 393.544 25.3644L393.351 26.5689C400.214 28.1278 425.308 26.0251 428.154 27.345C409.373 27.7872 391.245 28.3961 372.602 30.7875C370.006 31.1206 367.856 31.3213 365.25 30.9214L365.554 29.609C363.115 29.2168 363.599 29.6763 362.284 28.2155L364.503 27.6099L364.4 26.206Z" fill="#673B13"/>
<path d="M717.104 519.538C728.372 521.357 734.111 522.427 739.958 532.95C738.395 534.52 738.309 534.793 737.727 536.931L736.361 537.612C732.366 539.728 725.909 543.759 722.099 545.221C723.029 542.504 722.167 542.087 720.27 540.707C730.702 529.959 726.825 528.415 715.514 522.606C716.812 521.465 716.482 521.461 717.104 519.538Z" fill="#4D3A0F"/>
<path d="M685.92 534.664C689.169 536.359 693.861 537.895 695.83 540.425L695.824 541.556C689.127 546.598 668.357 555.352 661.706 555.39C663.237 554.269 663.87 553.787 665.185 552.429L664.788 550.773L667.955 549.876L667.939 549.188L662.975 547.708C669.496 545.069 681.536 540.04 685.92 534.664Z" fill="#673B13" fill-opacity="0.976471"/>
<path d="M494.404 552.82C504.478 556.011 512.958 551.423 522.218 552.903C525.112 554.93 531.487 554.311 535.512 554.389C531.122 555.074 527.578 555.795 523.107 555.872C526.81 556.072 529.698 556.037 533.207 557.358C519.012 558.461 504.796 559.276 490.568 559.802L488.438 558.422C486.22 558.725 478.971 559.124 477.216 557.827L477.899 556.911L482.425 556.405L480.859 555.425C481.422 555.181 482.843 555.202 483.551 555.17C489.083 556.448 489.856 556.068 494.404 552.82Z" fill="#A07538" fill-opacity="0.984314"/>
<path d="M228.568 587.492C255.79 590.954 270.593 589.749 297.743 589.974C292.081 592.183 285.391 590.232 276.664 593.061C280.656 593.747 284.662 594.358 288.679 594.897L289.165 595.851C282.425 595.92 225.048 591.328 221.682 589.001C222.462 588.099 226.979 587.73 228.568 587.492Z" fill="#673B13"/>
<path d="M178.264 552.462C190.43 554.423 198.45 555.77 210.163 560.08C207.953 561.378 206.189 562.212 204.594 564.213L202.804 564.021C190.696 558.501 194.657 562.151 183.912 560.875C177.567 560.122 165.396 557.636 158.241 556.538L157.576 555.86C160.216 553.073 168.115 558.998 178.264 552.462Z" fill="#BB8D57" fill-opacity="0.988235"/>
<path d="M466.462 585.088C477.2 585.58 488.067 585.858 498.816 586.017C504.317 586.099 515.321 587.073 520.255 586.285L524.388 587.06C529.43 588.6 537.974 586.115 541.348 587.913C533.858 592.668 526.369 587.988 518.197 590.625C503.551 591.321 482.334 587.529 464.911 588.235L466.462 585.088Z" fill="#BB8D57" fill-opacity="0.0235294"/>
<path d="M596.209 526.635C603.491 524.381 610.578 519.592 618.377 518.797C626.296 517.988 634.76 519.584 642.717 520.319L643.884 523.318L643.319 523.25C637.197 522.472 630.199 519.517 623.988 522.794C623.014 524.313 623.059 524.231 622.803 526.021C618.309 527.069 611.75 527.842 607.783 528.935C602.165 529.536 600.564 529.95 596.209 526.635Z" fill="#B3925A"/>
<path d="M101.51 522.777C109.463 521.362 133.786 518.06 140.852 521.687C138.608 524.219 109.377 528.174 101.766 530.294C99.7109 528.101 100.877 525.412 101.51 522.777Z" fill="#673B13"/>
<path d="M764.933 370.074C763.953 365.733 761.019 364.118 763.093 359.438C765.552 358.111 764.447 358.419 767.43 358.462C771.099 367.144 777.101 380.478 777.902 389.56C777.36 393.561 778.044 394.079 774.376 396.393C771.771 386.809 770.183 378.587 764.933 370.074Z" fill="#48320F"/>
<path d="M311.811 552.681C318.132 553.964 337.365 558.499 342.275 558.595C338.688 559.01 322.408 561.69 319.972 563.151C317.353 563.154 316.406 562.996 314.131 561.762C308.555 558.738 303.651 558.027 297.507 557.175C300.622 555.296 306.49 556.272 311.811 552.681Z" fill="#8E632D" fill-opacity="0.94902"/>
<path d="M60.518 551.005C71.6204 553.522 82.9073 555.162 94.272 555.911L93.6675 557.454C91.8335 558.176 91.0613 558.372 89.1283 558.783C79.9117 557.63 81.0953 561.734 74.7205 562.703C67.6692 560.922 60.6023 559.201 53.5208 557.541C56.6551 557.04 61.2007 557.643 63.1748 556.002C63.0078 553.459 62.2975 553.352 60.518 551.005Z" fill="#4A2A0B"/>
<path d="M400.378 662.003C414.052 663.787 434.38 662.47 448.616 663.369C453.589 663.683 460.329 662.914 465.019 664.024C458.566 666.585 386.803 666.381 383.249 663.727C386.693 662.803 396.345 662.302 400.378 662.003Z" fill="#734A1A" fill-opacity="0.984314"/>
<path d="M160.21 545.137C155.701 545.356 138.708 539.899 138.463 534.865C141.852 531.644 150.119 531.77 154.88 531.46C158.261 531.615 159.458 531.114 161.935 532.663L162.586 534.051C158.823 535.801 159.116 535.012 157.08 538.017C156.886 540.606 158.658 543.047 160.21 545.137Z" fill="#673B13"/>
<path d="M260.833 578.006C269.119 578.76 284.259 578.939 291.062 579.921L282.75 580.43L283.835 581.339L281.209 582.337L281.1 583.312C284.749 584.83 292.667 583.816 297.463 584.993C287.153 585.392 253.643 584.964 244.2 583.446C247.793 583.29 258.783 584.703 259.21 579.938L256.289 579.269L257.056 579.151L257.426 578.599L260.833 578.006Z" fill="#3F220E"/>
<path d="M150.874 554.998C153.182 555.337 156.825 556.603 158.241 556.538C165.396 557.636 177.567 560.122 183.912 560.875C194.657 562.152 190.696 558.501 202.805 564.021C200.231 563.617 198.139 562.979 195.918 564.334L195.523 565.602C197.841 568.341 197.814 567.643 201.892 568.861C198.792 569.054 181.412 565.575 175.38 565.089C177.204 564.724 177.612 564.496 179.323 563.723L179.085 562.728C174.964 560.172 167.843 558.974 162.971 558.983L162.279 559.04C158.637 558.499 152.965 558.218 150.874 554.998Z" fill="#B3925A" fill-opacity="0.564706"/>
<path d="M627.482 598.346C631.693 597.845 649.293 595.424 652.017 596.948C647.694 599.31 608.065 604.013 601.653 604.188C598.721 601.283 596.543 603.206 590.895 601.297C603.011 600.02 615.318 599.387 627.482 598.346Z" fill="#8D6749"/>
<path d="M805.072 352.673L805.835 352.537L811.019 358.342C802.702 372.373 802.549 379.935 796.822 391.312C796.48 390.716 795.717 388.735 795.411 387.991C797.881 374.644 803.063 364.894 805.072 352.673Z" fill="#48320F"/>
<path d="M622.802 526.021C627.515 525.863 640.922 527.881 643.624 526.956L644.182 525.239L645.862 527.826L645.194 527.97C640.495 529.024 642.061 529.711 638.427 531.35C634.013 533.34 628.178 532.071 623.473 532.4L622.166 532.189C614.315 529.686 617.526 529.208 607.783 528.935C611.75 527.842 618.309 527.069 622.802 526.021Z" fill="#A07538"/>
<path d="M803.24 417.917C805.595 417.254 805.721 416.774 807.635 417.558C808.295 419.556 807.598 420.839 806.946 422.91C799.482 430.982 799.523 434.022 794.679 443.023C792.572 441.412 792.526 440.62 791.875 438.15C795.204 429.677 798.021 425.396 803.24 417.917Z" fill="#48320F"/>
<path d="M330.559 33.501C341.662 30.3218 353.05 28.2942 364.4 26.2063L364.503 27.6101L362.284 28.2158C363.599 29.6765 363.114 29.2171 365.554 29.6093L365.25 30.9217C360.06 31.0114 346.891 33.4853 341.465 34.7737C337.43 35.1609 336.217 35.7329 332.402 37.2317C330.657 35.4356 331.207 36.2752 330.559 33.501Z" fill="#673B13"/>
<path d="M359.139 524.147C362.959 524.68 367.861 523.808 370.987 524.831L371.986 526.248C368.579 526.995 365.355 527.705 361.904 528.276C353.2 529.062 342.284 530.113 333.608 529.832C333.935 528.5 333.718 528.019 333.427 526.699C339.816 526.806 353.037 525.366 359.139 524.147Z" fill="#BB8D57"/>
<path d="M163.263 549.372C168.28 550.324 173.28 551.354 178.264 552.462C168.115 558.998 160.216 553.073 157.576 555.86L158.241 556.538C156.825 556.603 153.182 555.336 150.874 554.998L144.108 554.97C150.186 549.735 151.614 555.924 158.404 549.397L163.263 549.372Z" fill="#734A1A"/>
<path d="M485.63 536.788C483.674 536.331 483.535 536.358 482.056 535.089C484.308 534.457 495.509 535.471 499.252 535.498C503.415 535.507 516.161 535.243 519.645 535.677C516.511 538.077 506.255 537.755 502.143 539.319C500.824 539.82 495.877 543.68 494.408 544.834L493.754 544.31C494.561 538.654 490.298 537.997 485.63 536.788Z" fill="#734A1A" fill-opacity="0.980392"/>
<path d="M371.986 526.248C377.079 525.055 393.156 524.03 397.236 527.287C391.646 528.514 375.683 532.009 370.618 531.817L371.249 529.835C369.207 528.312 364.664 528.427 361.904 528.276C365.355 527.705 368.579 526.995 371.986 526.248Z" fill="#BB8D57" fill-opacity="0.0392157"/>
<path d="M210.163 560.08C216.659 560.709 230.723 563.229 235.95 563.275C233.647 564.26 230.659 566.343 229.672 566.659C221.432 566.291 212.657 565.992 204.594 564.213C206.189 562.212 207.953 561.378 210.163 560.08Z" fill="#734A1A"/>
<path d="M215.524 570.121C226.648 571.126 233.335 571.527 243.414 576.547C236.855 579.755 237.923 575.643 233.659 576.893L224.412 575.943C221.094 574.686 216.267 575.492 210.936 574.07L221.708 573.038C219.958 571.825 217.858 571.72 215.686 571.365L215.524 570.121Z" fill="#744818"/>
<path d="M657.042 568.177C664.999 567.639 666.783 566.571 675.262 566.762C673.888 568.341 637.494 575.216 632.858 575.786C632.021 571.847 640.316 575.709 645.229 570.197C648.916 569.55 654.089 569.493 657.042 568.177Z" fill="#4D3A0F"/>
<path d="M397.236 527.287L397.942 529.595C393.664 532.112 386.467 533.149 381.45 533.96C380.21 534.335 377.253 535.322 376.134 535.524L376.091 533.933C373.207 532.899 365.701 533.358 361.111 532.579L360.305 532.438L370.618 531.817C375.683 532.009 391.646 528.514 397.236 527.287Z" fill="#A07538" fill-opacity="0.988235"/>
<path d="M622.803 526.021C623.059 524.231 623.014 524.313 623.988 522.794C630.199 519.517 637.197 522.472 643.319 523.25L643.884 523.318L646.414 523.824L645.234 525.008L644.182 525.239L643.624 526.956C640.923 527.881 627.515 525.863 622.803 526.021Z" fill="#BB8D57" fill-opacity="0.929412"/>
<path d="M400.836 603.815C410.412 602.606 434.278 604.633 445.975 604.579C440.572 606.044 434.767 604.887 431.734 606.641C420.666 606.121 409.586 605.858 398.505 605.851L393.246 604.777C394.822 604.278 398.958 603.992 400.836 603.815Z" fill="#744818" fill-opacity="0.964706"/>
<path d="M715.514 522.606C709.136 520.608 687.436 515.531 683.534 513.314C679.368 511.006 717.224 519.565 717.104 519.538C716.481 521.461 716.812 521.465 715.514 522.606Z" fill="#673B13"/>
<path d="M183.342 534.205C184.545 537.262 185.977 539.189 185.174 541.828L183.185 542.339L183.002 543.007L186.056 545.638C181.523 544.775 175.454 544.066 174.505 538.883C176.004 536.073 175.586 536.879 178.474 534.988C179.268 534.963 182.371 534.369 183.342 534.205Z" fill="#3F220E" fill-opacity="0.988235"/>
<path d="M645.863 527.826L649.233 528.248L648.791 530.592C651.905 534.451 653.521 531.407 653.451 534.4C647.736 535.198 629.08 533.727 623.473 532.4C628.178 532.071 634.014 533.34 638.427 531.35C642.061 529.711 640.495 529.024 645.194 527.97L645.863 527.826Z" fill="#8E632D" fill-opacity="0.980392"/>
<path d="M720.27 540.708C722.167 542.088 723.029 542.505 722.099 545.222C711.925 549.581 705.104 552.82 694.115 554.86C703.288 549.967 711.402 546.547 720.27 540.708Z" fill="#673B13"/>
<path d="M328.041 568.11C337.592 568.246 347.22 568.781 356.707 568.845L364.58 570.402C354.699 571.7 337.663 571.346 327.331 571.241C329.159 570.891 333.132 570.329 334.504 569.379L328.041 568.11Z" fill="#744818" fill-opacity="0.87451"/>
<path d="M307.497 519.173C309.039 519.336 321.024 518.111 323.344 517.898L327.124 519.124C327.272 520.086 327.458 521.129 327.566 522.087C324.146 522.238 316.95 522.36 313.877 523.007C306.456 518.865 308.027 521.469 299.762 519.953L298.959 519.802L307.497 519.173Z" fill="#4A2A0B"/>
<path d="M162.279 559.04L162.971 558.983C165.821 559.928 172.287 561.306 173.927 562.908C172.237 564.074 171.947 563.984 169.818 564.198C160.609 563.385 156.633 562.777 147.519 560.763C152.595 559.803 159.001 560.815 162.279 559.04Z" fill="#BB8D57" fill-opacity="0.0156863"/>
<path d="M541.319 528.243C547.748 528.84 555.163 529.392 561.501 530.425L559.77 532.174L559.988 533.53C557.143 532.891 553.585 532.58 550.635 532.243C545.715 530.628 541.004 531.777 534.959 529.802L535.076 529.297C536.96 527.88 538.508 528.346 541.319 528.243Z" fill="#DCB66E" fill-opacity="0.113725"/>
<path d="M563.62 519.699C567.722 520.281 570.019 520.076 572.52 523.599C571.566 524.8 570.561 526.165 569.495 527.247C565.84 526.253 561.578 525.493 559.523 522.38C560.927 520.057 560.456 520.756 563.62 519.699Z" fill="#B3925A" fill-opacity="0.984314"/>
<path d="M170.561 528.579C173.121 529.899 175.586 530.007 176.823 531.3L176.707 532.029C171.831 532.62 167.427 533.219 162.587 534.052L161.935 532.664C159.458 531.114 158.261 531.615 154.88 531.46C160.816 530.016 164.497 529.365 170.561 528.579Z" fill="#673B13"/>
<path d="M513.558 531.751C517.517 532.184 526.746 532.95 530.05 534.138L529.724 534.742L526.481 535.23L519.645 535.676C516.161 535.243 503.415 535.506 499.252 535.498C504.281 533.799 510.448 536.03 514.095 533.19L513.558 531.751Z" fill="#DCB66E" fill-opacity="0.247059"/>
<path d="M243.283 597.394C248.355 597.528 264.883 597.517 268.322 599.04L268.189 599.995C263.27 600.121 246.676 600.587 243.135 598.588L243.283 597.394Z" fill="#8D6749" fill-opacity="0.741176"/>
<path d="M167.968 571.978L168.524 572.075C170.728 572.881 173.646 572.65 177.006 573.838L177.281 574.945C174.253 577.154 162.945 574.921 159.451 573.66C160.685 572.459 165.773 572.247 167.968 571.978Z" fill="#8E632D" fill-opacity="0.878431"/>
<path d="M185.839 530.133C192.452 529.269 201.308 527.148 207.282 529.554C204.265 530.183 191.216 532.992 188.463 532.877L189.689 532.047L189.818 531.058L185.839 530.133Z" fill="#8E632D" fill-opacity="0.501961"/>
<path d="M521.692 621.773C524.827 621.381 535.404 619.738 537.814 621.615C534.963 622.654 527.941 624.693 524.957 624.372C523.968 622.776 523.441 622.687 521.692 621.773Z" fill="#673B13"/>
<path d="M537.375 551.421L548.649 550.022L549.083 552.866L546.602 553.429C542.097 553.108 535.045 554.481 531.406 551.931L537.375 551.421Z" fill="#B3925A" fill-opacity="0.203922"/>
<path d="M376.134 535.524C377.253 535.322 380.21 534.334 381.45 533.959L381.089 535.56C383.007 537.318 388.418 537.406 391.668 537.938C384.469 537.896 378.221 539.009 372.424 539.009L371.603 538.441C373.642 537.958 373.9 537.884 375.4 536.445L376.134 535.524Z" fill="#A07538" fill-opacity="0.423529"/>
<path d="M185.839 530.134L189.818 531.059L189.689 532.047L188.463 532.877C187.207 533.195 184.428 533.809 183.342 534.205C182.371 534.369 179.268 534.963 178.474 534.988L178.648 533.579L176.707 532.029L176.823 531.3C180.643 531.676 182.08 531.125 185.839 530.134Z" fill="#8D6749" fill-opacity="0.0509804"/>
<path d="M472.47 546.284C475.577 544.299 481.433 540.075 484.757 539.536C483.51 544.523 478.906 544.643 474.481 547.857L472.47 546.284Z" fill="#BB8D57" fill-opacity="0.811765"/>
<path d="M297.175 652.912C301.698 653.333 311.633 655.554 314.333 659.428C311.175 659.704 299.05 655.317 297.175 652.912Z" fill="#673B13"/>
<path d="M522.218 552.903C525.195 552.41 528.418 551.732 531.406 551.93C535.045 554.48 542.097 553.108 546.602 553.429C543.144 554.621 539.21 554.377 535.512 554.389C531.487 554.311 525.112 554.93 522.218 552.903Z" fill="#BB8D57" fill-opacity="0.717647"/>
<path d="M162.971 558.983C167.843 558.974 174.964 560.172 179.085 562.728L179.323 563.723C177.612 564.496 177.204 564.724 175.38 565.089L169.818 564.198C171.947 563.984 172.237 564.074 173.927 562.908C172.287 561.306 165.821 559.928 162.971 558.983Z" fill="#B3925A" fill-opacity="0.333333"/>
<path d="M529.056 528.739C526.008 528.391 521.101 528.212 518.885 526.42C522.877 524.776 528.621 526.267 533.004 527.011L529.056 528.739Z" fill="#BB8D57" fill-opacity="0.541176"/>
<path d="M323.359 527.727L333.427 526.699C333.718 528.018 333.935 528.5 333.608 529.832L324.489 530.84L323.359 527.727Z" fill="#3F220E"/>
<path d="M549.409 563.674C552.476 562.284 557.489 561.816 560.962 561.317L561.511 564.63C557.844 564.774 552.498 565.282 549.409 563.674Z" fill="#8E632D"/>
<path d="M372.424 539.009C370.531 539.574 366.638 539.891 364.868 538.845L365.689 537.543C368.702 536.036 372.004 536.391 375.399 536.445C373.9 537.884 373.642 537.958 371.603 538.441L372.424 539.009Z" fill="#8E632D" fill-opacity="0.537255"/>
<path d="M385.945 605.921L386.075 605.216C389.265 602.52 396.353 603.6 400.836 603.815C398.958 603.992 394.822 604.278 393.246 604.777L398.505 605.851C394.127 605.768 390.346 605.746 385.945 605.921Z" fill="#734A1A" fill-opacity="0.729412"/>
<path d="M290.269 599.985L292.037 600.172L291.858 601.134C288.37 602.448 286.252 602.174 282.495 602.096L280.823 601.466C282.488 600.201 287.831 600.164 290.269 599.985Z" fill="#744818" fill-opacity="0.196078"/>
<path d="M224.412 575.943L233.659 576.894L233.906 577.86C230.566 578.663 227.844 579.341 224.598 577.899L224.412 575.943Z" fill="#744818" fill-opacity="0.87451"/>
<path d="M483.551 555.169C487.297 553.939 490.441 552.631 494.404 552.82C489.856 556.068 489.083 556.448 483.551 555.169Z" fill="#A07538" fill-opacity="0.92549"/>
<path d="M533.004 527.011C535.121 527.282 539.458 527.729 541.32 528.242C538.508 528.345 536.96 527.88 535.076 529.297L534.959 529.802L529.056 528.739L533.004 527.011Z" fill="#DCB66E" fill-opacity="0.407843"/>
<path d="M356.707 568.845C359.595 568.827 362.825 568.61 365.52 569.502L365.232 570.235L364.579 570.401L356.707 568.845Z" fill="#744818" fill-opacity="0.576471"/>
</svg>
